<svg viewBox="0 0 1024 1024" xmlns="http://www.w3.org/2000/svg"><path d="M896 56H128c-57.41.068-103.932 46.59-104 103.994V672c.057 57.415 46.585 103.943 103.994 104h256.353l-53.922 112H192c-22.092 0-40 17.91-40 40s17.908 40 40 40h640c22.09 0 40-17.91 40-40s-17.91-40-40-40H696.685l-56-112H896c57.418-.046 103.953-46.58 104-103.996V160c-.058-57.415-46.586-103.943-103.995-104H896zM607.305 888h-188.09l53.922-112h78.148zM920 672c-.004 13.253-10.747 23.996-24 24H128c-13.25-.015-23.985-10.75-24-24V160c.027-13.244 10.756-23.973 23.997-24H896c13.25.015 23.985 10.75 24 24zM310.75 423.344l103.343-118.157c6.15-6.997 9.902-16.232 9.902-26.344 0-22.09-17.906-39.995-39.995-39.995-11.977 0-22.725 5.265-30.055 13.606l-.04.045-128 146.312c-6.153 6.996-9.908 16.232-9.908 26.345 0 11.045 4.48 21.044 11.72 28.28l128 128c7.24 7.238 17.238 11.714 28.282 11.714 22.088 0 39.995-17.906 39.995-39.995 0-11.045-4.477-21.043-11.715-28.28zM670.125 252.53c-7.373-8.4-18.133-13.674-30.125-13.674-22.102 0-40.02 17.917-40.02 40.02 0 10.11 3.75 19.344 9.934 26.388l-.04-.045L713.25 423.343l-101.562 101.53c-7.285 7.25-11.794 17.284-11.794 28.37 0 22.102 17.917 40.02 40.018 40.02 11.102 0 21.15-4.522 28.398-11.824l128.002-128.002c7.235-7.24 11.71-17.238 11.71-28.28 0-10.112-3.75-19.346-9.936-26.39l.04.046z"/></svg>